<?xml version="1.0" encoding="utf-8"?>
<!-- Generator: Adobe Illustrator 24.0.0, SVG Export Plug-In . SVG Version: 6.00 Build 0)  -->
<svg version="1.1" xmlns="http://www.w3.org/2000/svg" xmlns:xlink="http://www.w3.org/1999/xlink" x="0px" y="0px"
	 viewBox="0 0 256 256" enable-background="new 0 0 256 256" xml:space="preserve">
<g id="Layer_1">
</g>
<g id="Layer_2">
</g>
<g id="Layer_3">
</g>
<g id="Layer_4">
</g>
<g id="Layer_5">
</g>
<g id="Layer_6">
</g>
<g id="Layer_7">
</g>
<g id="Layer_8">
</g>
<g id="Layer_9">
</g>
<g id="Layer_10">
</g>
<g id="Layer_11">
</g>
<g id="Layer_12">
</g>
<g id="Layer_13">
</g>
<g id="Layer_14">
</g>
<g id="Layer_15">
</g>
<g id="Layer_16">
</g>
<g id="Layer_17">
</g>
<g id="Layer_18">
</g>
<g id="Layer_19">
	<g>
		<g>
			<g>
				<path fill="#DAE6F1" d="M132.71,164.052C87.454,126.37,35.503,89.851,22.797,81.018c-0.817,0.47-1.663,0.895-2.555,1.234
					l-5.708,2.176c-6.495,2.914-11.002,9.004-11.89,16.067l0,0c-0.925,7.356,2.649,14.549,9.069,18.256l153.67,88.721
					c43.077,24.871,70.321,11.278,80.482,3.813c1.823-1.339,3.372-2.991,4.605-4.841C228.682,210.846,182.452,205.47,132.71,164.052
					z"/>
			</g>
		</g>
		<g>
			<g>
				<path fill="#FC657E" d="M22.797,81.018c-0.817,0.47-1.663,0.895-2.555,1.234l-5.708,2.176
					c-6.495,2.914-11.002,9.004-11.89,16.067l0,0c-0.925,7.356,2.649,14.549,9.069,18.256l30.927,17.856l48.829-5.395
					C59.85,106.975,31.697,87.205,22.797,81.018z"/>
			</g>
		</g>
		<g>
			<g>
				<path fill="#DAE6F1" d="M159.907,73.179c-3.928-7.879-14.692-8.931-20.162-2.032c-4.691,5.917-8.045,12.97-10.024,17.814
					c3.169-0.814,5.973-1.771,8.234-2.649c3.671-1.426,7.833-0.177,10.13,3.021l37.14,51.695c2.716,3.78,7.223,5.849,11.86,5.444
					c1.662-0.145,3.307,0.043,4.867,0.501C186.091,124.328,168.811,91.039,159.907,73.179z"/>
			</g>
		</g>
		<g>
			<g>
				<path fill="#EF4460" d="M252.257,190.203c-0.972-2.433-2.748-4.472-4.979-5.845c-16.175-9.953-32.068-25.925-39.435-33.782
					c-2.766-2.95-6.728-4.458-10.757-4.106c-4.637,0.405-9.144-1.664-11.86-5.444l-37.14-51.695
					c-2.298-3.198-6.459-4.448-10.13-3.021c-9.235,3.588-27.465,8.498-43.038-0.493C78.828,76.529,77.333,55.61,77.673,45.16
					c0.127-3.907-1.898-7.561-5.283-9.515c-3.403-1.965-7.605-1.861-10.943,0.212C43.803,46.815,34.28,63.74,30.142,72.948
					c-1.539,3.424-4.131,6.221-7.345,8.07c12.706,8.833,64.657,45.352,109.914,83.034c49.742,41.417,95.972,46.793,117.759,42.392
					c1.771-2.656,2.868-5.733,3.012-8.978C253.612,194.561,253.017,192.105,252.257,190.203z"/>
			</g>
		</g>
		<g>
			<g>
				<path fill="#3A70BF" d="M252.257,190.203c-0.972-2.433-2.748-4.472-4.979-5.845c-16.175-9.953-32.068-25.925-39.435-33.782
					c-2.766-2.95-6.728-4.458-10.757-4.106c-2.344,0.205-4.653-0.227-6.716-1.188c-4.481,7.858-17.847,24.805-49.806,25.018
					c46.705,35.688,89.27,40.312,109.906,36.144c1.771-2.656,2.868-5.733,3.012-8.978
					C253.612,194.561,253.017,192.105,252.257,190.203z"/>
			</g>
		</g>
		<g>
			<g>
				<path fill="#5290DB" d="M252.257,190.203c-0.972-2.433-2.748-4.472-4.979-5.845c-0.568-0.349-1.135-0.708-1.702-1.071
					c-3.323,4.022-9.89,8.806-21.727,6.837c-17.786-2.958-37.903-6.698-47.637,2.27c31.915,15.401,59.046,17.123,74.257,14.05
					c1.771-2.656,2.868-5.733,3.012-8.978C253.612,194.561,253.017,192.105,252.257,190.203z"/>
			</g>
		</g>
		<g>
			<g>
				<path fill="#DAE6F1" d="M77.673,45.16c0.127-3.907-1.898-7.561-5.283-9.515c-3.403-1.965-7.605-1.861-10.943,0.212
					c-1.882,1.169-3.652,2.417-5.353,3.705c1.235,10.323,7.038,28.214,31.13,39.829C78.328,68.934,77.398,53.619,77.673,45.16z"/>
			</g>
		</g>
		<g>
			<g>
				<path fill="#FC657E" d="M114.739,90.913c-4.361-0.03-8.886-0.646-13.33-2.161c16.509,31.446,1.267,40.186-9.785,42.578
					c11.006,8.438,22.427,17.416,33.602,26.549C144.59,139.698,122.678,102.827,114.739,90.913z"/>
			</g>
		</g>
		<g>
			<g>
				<path d="M251.856,204.364c-1.151-0.765-2.702-0.456-3.467,0.694c-1.101,1.65-2.447,3.068-4.005,4.212
					c-28.153,20.684-63.755,4.119-77.752-3.963L12.964,116.587c-5.563-3.212-8.641-9.406-7.839-15.78
					c0.771-6.132,4.741-11.517,10.369-14.069l5.638-2.149c0.941-0.358,1.895-0.818,2.913-1.404c1.196-0.689,1.607-2.218,0.918-3.414
					c-0.688-1.198-2.219-1.606-3.414-0.919c-0.786,0.453-1.505,0.801-2.197,1.065l-5.708,2.176
					c-0.045,0.017-0.089,0.035-0.133,0.055c-7.243,3.25-12.356,10.161-13.347,18.036c-1.053,8.375,2.99,16.513,10.3,20.733
					l153.669,88.721c18.971,10.953,35.021,14.6,47.989,14.599c17.5,0,29.382-6.645,35.224-10.937
					c2.029-1.491,3.78-3.331,5.204-5.469C253.315,206.682,253.005,205.13,251.856,204.364z"/>
			</g>
		</g>
		<g>
			<g>
				<path d="M171.738,84.969c-0.629-1.229-2.134-1.717-3.364-1.087l-20.39,10.432c-1.229,0.629-1.716,2.135-1.087,3.364
					c0.442,0.865,1.318,1.362,2.228,1.362c0.383,0,0.772-0.088,1.137-0.275l20.39-10.432
					C171.881,87.705,172.367,86.198,171.738,84.969z"/>
			</g>
		</g>
		<g>
			<g>
				<path d="M196.82,129.212c-0.629-1.229-2.135-1.716-3.364-1.087l-15,7.674c-1.229,0.629-1.716,2.135-1.087,3.364
					c0.442,0.865,1.318,1.362,2.228,1.362c0.383,0,0.772-0.088,1.137-0.275l15-7.674
					C196.963,131.948,197.449,130.441,196.82,129.212z"/>
			</g>
		</g>
		<g>
			<g>
				<path d="M190.33,118.264c-0.629-1.229-2.136-1.717-3.364-1.087l-16.128,8.251c-1.229,0.629-1.716,2.135-1.087,3.364
					c0.442,0.865,1.318,1.362,2.228,1.362c0.383,0,0.772-0.088,1.137-0.275l16.128-8.251
					C190.473,121,190.959,119.493,190.33,118.264z"/>
			</g>
		</g>
		<g>
			<g>
				<path d="M183.994,107.237c-0.629-1.229-2.134-1.716-3.364-1.087l-17.409,8.907c-1.229,0.629-1.716,2.135-1.087,3.364
					c0.442,0.865,1.318,1.362,2.228,1.362c0.383,0,0.772-0.088,1.137-0.275l17.409-8.907
					C184.137,109.972,184.623,108.466,183.994,107.237z"/>
			</g>
		</g>
		<g>
			<g>
				<path d="M177.889,96.092c-0.629-1.229-2.135-1.716-3.364-1.087l-18.922,9.681c-1.229,0.629-1.716,2.135-1.087,3.364
					c0.442,0.865,1.318,1.362,2.228,1.362c0.383,0,0.772-0.088,1.137-0.275l18.922-9.681
					C178.031,98.827,178.518,97.321,177.889,96.092z"/>
			</g>
		</g>
		<g>
			<g>
				<path d="M181.959,155.568L131.317,87.26c-0.821-1.109-2.386-1.342-3.497-0.52c-1.108,0.822-1.342,2.388-0.52,3.497
					l50.642,68.308c0.49,0.662,1.245,1.011,2.01,1.011c0.518,0,1.039-0.16,1.487-0.492
					C182.548,158.243,182.781,156.677,181.959,155.568z"/>
			</g>
		</g>
		<g>
			<g>
				<path fill="#87D147" d="M89.8,185c-4.5-0.8-8-4.3-8.9-8.7c0-0.2-0.4-0.2-0.4,0c-0.9,4.4-4.4,7.9-8.9,8.7c-0.2,0-0.2,0.3,0,0.4
					c4.5,0.8,8,4.3,8.9,8.7c0,0.2,0.4,0.2,0.4,0c0.9-4.4,4.4-7.9,8.9-8.7C90,185.3,90,185,89.8,185z"/>
			</g>
		</g>
		<g>
			<g>
				<path fill="#F5C84C" d="M131.495,58.626c-3.101-0.551-5.512-2.963-6.133-5.995c0-0.138-0.276-0.138-0.276,0
					c-0.62,3.032-3.032,5.443-6.133,5.995c-0.138,0-0.138,0.207,0,0.276c3.101,0.551,5.512,2.963,6.133,5.995
					c0,0.138,0.276,0.138,0.276,0c0.62-3.032,3.032-5.443,6.133-5.995C131.633,58.833,131.633,58.626,131.495,58.626z"/>
			</g>
		</g>
		<g>
			<g>
				<path fill="#70D6F9" d="M200.2,78.9h-2.3v-2.3c0-1.7-1.4-3.2-3.2-3.2c-1.8,0-3.2,1.4-3.2,3.2v2.3h-2.3c-1.7,0-3.2,1.4-3.2,3.2
					s1.4,3.2,3.2,3.2h2.3v2.3c0,1.7,1.4,3.2,3.2,3.2c1.8,0,3.2-1.4,3.2-3.2v-2.3h2.3c1.7,0,3.2-1.4,3.2-3.2S202,78.9,200.2,78.9z"/>
			</g>
		</g>
		<g>
			<g>
				<path fill="#70D6F9" d="M59.8,163.5c-1.878,0-3.4,1.522-3.4,3.4c0,1.878,1.522,3.4,3.4,3.4c1.878,0,3.4-1.522,3.4-3.4
					C63.2,165.022,61.678,163.5,59.8,163.5z"/>
			</g>
		</g>
		<g>
			<g>
				<path fill="#FC657E" d="M201.8,104.5c-1.878,0-3.4,1.522-3.4,3.4c0,1.878,1.522,3.4,3.4,3.4c1.878,0,3.4-1.522,3.4-3.4
					C205.2,106.022,203.678,104.5,201.8,104.5z"/>
			</g>
		</g>
		<g>
			<g>
				<path d="M93.441,130.995c-0.151-1.373-1.396-2.359-2.76-2.21l-47.655,5.265c-1.372,0.151-2.362,1.387-2.211,2.759
					c0.142,1.279,1.225,2.226,2.482,2.226c0.092,0,0.185-0.005,0.277-0.015l47.655-5.265
					C92.603,133.603,93.593,132.367,93.441,130.995z"/>
			</g>
		</g>
		<g>
			<g>
				<path d="M203.506,144.828c-15.651-22.52-32.632-55.255-41.361-72.765c-2.217-4.446-6.488-7.408-11.427-7.923
					c-4.979-0.52-9.813,1.52-12.932,5.454c-4.604,5.808-7.943,12.641-9.935,17.351c-0.537,1.271,0.058,2.738,1.329,3.276
					c1.272,0.537,2.738-0.058,3.276-1.33c1.87-4.424,4.992-10.824,9.247-16.191c2.052-2.587,5.237-3.928,8.495-3.587
					c3.276,0.342,5.999,2.23,7.471,5.181c8.789,17.631,25.898,50.609,41.73,73.388c0.485,0.699,1.264,1.073,2.055,1.073
					c0.492,0,0.99-0.145,1.425-0.447C204.014,147.52,204.294,145.962,203.506,144.828z"/>
			</g>
		</g>
		<g>
			<g>
				<g>
					<g>
						<path d="M254.579,189.276c-1.148-2.874-3.276-5.376-5.99-7.047c-15.717-9.67-31.132-25.053-38.921-33.362
							c-3.308-3.526-7.963-5.303-12.8-4.887c-3.729,0.328-7.422-1.363-9.612-4.412l-37.14-51.695
							c-2.966-4.128-8.339-5.729-13.066-3.893c-9,3.497-26.278,8.104-40.883-0.328c-6.321-3.65-16.806-13.493-15.995-38.412
							c0.157-4.838-2.346-9.345-6.532-11.761c-4.19-2.418-9.367-2.322-13.513,0.254C41.899,45.055,32.088,62.52,27.861,71.923
							c-1.308,2.909-3.49,5.305-6.312,6.928c-0.742,0.427-1.214,1.205-1.251,2.061c-0.036,0.855,0.368,1.67,1.071,2.159
							c14.462,10.054,65.117,45.748,109.74,82.903c39.648,33.013,78.41,44.292,104.97,44.292c5.521,0,10.52-0.488,14.885-1.37
							c0.648-0.131,1.219-0.514,1.585-1.064c2.085-3.127,3.271-6.673,3.43-10.254C256.107,194.713,255.636,191.92,254.579,189.276z
							 M248.932,204.187c-8.969,1.521-56.223,6.57-114.622-42.056C92.161,127.036,44.673,93.258,27.146,81.002
							c2.257-1.923,4.052-4.306,5.276-7.03c3.993-8.883,13.244-25.372,30.344-35.992c2.576-1.601,5.785-1.666,8.374-0.171
							c2.586,1.493,4.132,4.278,4.034,7.269c-0.895,27.524,11.202,38.695,18.493,42.904c16.412,9.475,35.359,4.479,45.193,0.658
							c2.604-1.009,5.561-0.125,7.195,2.149l37.14,51.695c3.214,4.474,8.615,6.956,14.108,6.476
							c3.288-0.286,6.466,0.924,8.716,3.325c7.961,8.491,23.736,24.225,39.948,34.201c1.807,1.111,3.216,2.76,3.969,4.644
							c0.791,1.98,1.144,4.074,1.049,6.224C250.88,199.702,250.174,202.045,248.932,204.187z"/>
					</g>
				</g>
			</g>
		</g>
		<g>
			<g>
				<path d="M191.257,143.813c-1.186-0.707-2.721-0.321-3.429,0.865c-5.075,8.499-17.918,22.803-46.905,23.12
					c-1.381,0.015-2.487,1.146-2.473,2.527c0.016,1.372,1.132,2.473,2.499,2.473h0.028c13.899-0.152,25.87-3.404,35.578-9.665
					c8.166-5.266,12.972-11.549,15.565-15.892C192.829,146.056,192.441,144.521,191.257,143.813z"/>
			</g>
		</g>
		<g>
			<g>
				<path d="M246.918,181.742c-1.044-0.903-2.622-0.788-3.526,0.256c-3.049,3.526-8.843,7.37-19.132,5.659l-1.847-0.308
					c-17.297-2.889-36.905-6.166-47.345,2.72c-1.052,0.895-1.179,2.473-0.283,3.524c0.494,0.581,1.197,0.879,1.904,0.879
					c0.573,0,1.149-0.196,1.619-0.596c8.67-7.379,27.059-4.307,43.28-1.596l1.851,0.309c12.578,2.092,19.85-2.827,23.735-7.321
					C248.077,184.224,247.963,182.645,246.918,181.742z"/>
			</g>
		</g>
		<g>
			<g>
				<path d="M87.824,76.903C66.64,66.504,60.301,51.263,58.714,40.308c-0.198-1.367-1.468-2.314-2.833-2.116
					c-1.366,0.198-2.313,1.466-2.116,2.833c1.441,9.943,7.495,28.408,31.856,40.367c0.354,0.174,0.729,0.256,1.1,0.256
					c0.924,0,1.812-0.514,2.246-1.399C89.575,79.01,89.063,77.512,87.824,76.903z"/>
			</g>
		</g>
		<g>
			<g>
				<path d="M117.362,90.348c-0.758-1.154-2.307-1.476-3.462-0.718c-1.154,0.758-1.476,2.308-0.718,3.462
					c6.765,10.301,27.554,45.232,11.083,62.225c-0.961,0.991-0.937,2.574,0.055,3.535c0.486,0.471,1.113,0.705,1.74,0.705
					c0.652,0,1.305-0.254,1.795-0.76C146.394,139.672,126.692,104.558,117.362,90.348z"/>
			</g>
		</g>
		<g>
			<g>
				<path d="M104.043,88.398c-0.632-1.227-2.138-1.711-3.367-1.08c-1.228,0.631-1.711,2.139-1.08,3.367
					c6.433,12.506,8.173,22.199,5.172,28.808c-2.04,4.496-6.315,7.581-12.706,9.169c-1.34,0.333-2.156,1.689-1.823,3.029
					c0.282,1.137,1.303,1.897,2.424,1.897c0.199,0,0.402-0.024,0.604-0.074c7.837-1.947,13.388-6.081,16.055-11.955
					C112.984,113.489,111.209,102.332,104.043,88.398z"/>
			</g>
		</g>
	</g>
</g>
<g id="Layer_20">
</g>
<g id="Layer_21">
</g>
<g id="Layer_22">
</g>
<g id="Layer_23">
</g>
<g id="Layer_24">
</g>
<g id="Layer_25">
</g>
<g id="Layer_26">
</g>
<g id="Layer_27">
</g>
<g id="Layer_28">
</g>
<g id="Layer_29">
</g>
<g id="Layer_30">
</g>
<g id="Layer_31">
</g>
<g id="Layer_32">
</g>
<g id="Layer_33">
</g>
<g id="Layer_34">
</g>
<g id="Layer_35">
</g>
<g id="Layer_36">
</g>
<g id="Layer_37">
</g>
<g id="Layer_38">
</g>
<g id="Layer_39">
</g>
<g id="Layer_40">
</g>
<g id="Layer_41">
</g>
<g id="Layer_42">
</g>
<g id="Layer_43">
</g>
<g id="Layer_44">
</g>
<g id="Layer_45">
</g>
<g id="Layer_46">
</g>
<g id="Layer_47">
</g>
<g id="Layer_48">
</g>
<g id="Layer_49">
</g>
<g id="Layer_50">
</g>
<g id="Layer_51">
</g>
<g id="Layer_52">
</g>
<g id="Layer_53">
</g>
<g id="Layer_54">
</g>
<g id="Layer_55">
</g>
<g id="Layer_56">
</g>
<g id="Layer_57">
</g>
<g id="Layer_58">
</g>
<g id="Layer_59">
</g>
<g id="Layer_60">
</g>
<g id="Layer_61">
</g>
<g id="Layer_62">
</g>
<g id="Layer_63">
</g>
<g id="Layer_64">
</g>
<g id="Layer_65">
</g>
<g id="Layer_66">
</g>
<g id="Layer_67">
</g>
<g id="Layer_68">
</g>
<g id="Layer_69">
</g>
<g id="Layer_70">
</g>
<g id="Layer_71">
</g>
<g id="Layer_72">
</g>
<g id="Layer_73">
</g>
<g id="Layer_74">
</g>
<g id="Layer_75">
</g>
</svg>
